<svg version="1" xmlns="http://www.w3.org/2000/svg" width="170.667" height="170.667" viewBox="0 0 128.000000 128.000000"><path d="M62.4 20.5c-.5 1.1-2.2 6.3-3.9 11.5l-3.1 9.5-12.5.5-12.4.5 9.5 6.9c5.2 3.8 9.7 7.1 9.9 7.2.2.2-1.2 5.4-3.2 11.6-2 6.1-3.5 11.4-3.2 11.6.4.5 8-4.7 15.2-10.5 3.2-2.6 4.1-3.9 3.7-5.6-.3-1.2-.6-3.7-.8-5.5-.4-4.2-2-6-3.9-4.4-1.1.9-2.5.4-6.5-2.5-2.9-2-5-3.8-4.8-4 .7-.8 33.6-.9 33.6-.1 0 .3-3.6 3.2-8 6.4-7.6 5.4-8 5.9-8 9.5 0 3.5.4 4 9.1 10.4 5 3.6 9.3 6.4 9.6 6.1.4-.4-3.6-13.5-6.4-21.3-.3-.6 4-4.5 9.4-8.5l9.8-7.3-12.2-.3-12.2-.3-3.9-11.7c-3.1-9.2-4.1-11.3-4.8-9.7z"/><path d="M59.9 77.6c-1.8 1.3-2.9 2.4-2.3 2.5 4.8.4 9.7.3 10.5-.1.5-.4-.4-1.6-2-2.8l-2.9-2.1-3.3 2.5zM98.7 89.8c-1.2.2-1.6.9-1.2 2.2.3 1 .1 2.1-.5 2.5-.6.3-.7 1.2-.3 1.8.4.7.8 3.3.9 5.9.2 4.1-.1 4.8-1.7 4.8-3.2 0-4.4-5-2.2-9.3 1.5-3 .8-3.4-2.4-1.2-3 2.1-3.9 6.9-1.9 10.1 1.5 2.1 2.2 2.4 6.4 2 2.6-.2 5.3-.4 6-.5.7-.1 1-.6.7-1.2-.4-.5-.6-4.6-.6-8.9.1-8.2-.2-8.9-3.2-8.2zM14.5 94.2c-1.7.8-2 1.7-1.7 6.8.4 6.8 1.8 8.6 5.9 7.5 2.8-.7 2.8-.7.5-1.6-2.1-.8-2.3-1.4-2-6.8.1-3.3 0-6.2-.2-6.4-.3-.3-1.4 0-2.5.5zM50.9 94.3c-1.1.9-1.5 2.7-1.4 6.8.2 6.7.9 7.9 4 7.9 2.9 0 4.1-1.6 1.7-2.2-1.5-.4-1.7-1.5-1.5-7.2.3-6.8-.1-7.4-2.8-5.3zM1.6 96.6c-2.5 2.4-1.9 4.2 2.4 7 3.2 2.1 3.8 3 2.9 4-1.7 2.1.5 1.7 2.5-.5 1.5-1.7 1.3-5.1-.4-5.1-.4 0-1.9-.9-3.4-2.1-2.1-1.7-2.4-2.4-1.5-3.5 1.6-2-.5-1.8-2.5.2zM7.2 97c.9 1.3 1.6 1.6 2.3.9.7-.7.5-1.3-.5-1.9-2.4-1.5-3.1-1.1-1.8 1zM25.8 95.7c-1 .3-1.8.8-1.8 1.3 0 .4.9.6 2.1.3 1.2-.4 2.5 0 3 .8 1 1.6 1.2 4.6.3 3.6-1-.9-6.2 1.3-6.8 3-1.1 2.8 1.2 4.2 6.2 3.9 2.6-.2 4.9-.4 5.3-.5.7-.1-.5-10.8-1.4-11.7-.8-.8-4.6-1.2-6.9-.7zm3.9 9.3c.2 1.2-.3 2-1.1 2-2.2 0-2.9-1.9-1.5-3.6 1.4-1.7 2.2-1.2 2.6 1.6zM39.5 95.8c-1.8.2-2 1-2 6.7 0 6.3.1 6.5 2.6 6.5s2.6-.1 2.1-5.6l-.5-5.7 2.7.7c2.2.5 2.6.3 2.6-1.4 0-2.2-.7-2.5-3-1-.8.5-1.7.6-2 .2-.3-.4-1.4-.6-2.5-.4zM61.7 96.2c-.9.7-2.1 2.7-2.6 4.5-1.8 6.3 5.1 10.8 10.4 6.7 1.9-1.5 1.9-1.5-.8-.9-1.6.5-3.3.2-4.2-.5-1.8-1.5-2-8.1-.3-9.8 1.6-1.6-.3-1.6-2.5 0z"/><path d="M66.4 98c.1 2.4.5 3 2.4 3 2.9 0 2.7-2.6-.4-4.7-2-1.3-2.1-1.2-2 1.7zM74.4 95.8c-1.8.3-2 .8-1.4 5.3.4 2.7.3 5.2-.2 5.5-1.7 1.1-.7 2.1 2 2.2 2.8.1 2.8 0 2.8-5.6-.1-5.1.1-5.7 1.9-5.7 1.8 0 2 .7 2 5.7 0 5.6 0 5.8 2.6 5.8 2.5 0 2.6-.1 2.1-5.8-.2-3.1-.8-6.1-1.2-6.5-1.1-1.3-4.3-1.5-6.2-.6-.9.5-1.8.5-2 .1-.2-.4-1.2-.6-2.4-.4zM106.6 97.1c-6.2 4.8-.6 14.1 6.8 11.3 2.3-.9 2-2.7-.3-1.9-1.1.3-2.6-.1-3.5-1-1.9-2-2.1-3.5-.3-3.5.8 0 .7-.4-.3-1-1.1-.7-1.2-1.4-.4-2.7 1.6-2.5 3.1-2.7 3.7-.3.3 1.1.1 2-.5 2-.5 0-.7.4-.4.9.3.4 1.6.6 3 .4 3-.6 2.5-3.6-1-5.2-3.3-1.5-3.7-1.4-6.8 1zM119.2 95.8c-1.4.2-2 .8-1.5 1.5 1.1 1.7 1.1 9 .1 10.3-.6.9.1 1.2 2.6 1.2 3.1 0 3.4-.2 2.8-2.2-.4-1.1-.7-2.8-.6-3.6.1-.8.2-2.3.3-3.4.1-1.3.6-1.7 2.2-1.3 1.2.3 2.2 0 2.6-.9.8-2.2-.2-2.7-2.7-1.4-1.3.7-2.5.8-2.9.3-.3-.4-1.6-.7-2.9-.5zM.2 106.7c.2 1 1.1 1.9 2.1 2.1 1.6.3 1.7.1.5-1.7-1.6-2.5-3.1-2.7-2.6-.4z"/></svg>