<svg width="77" height="76" viewBox="0 0 77 76" fill="none" xmlns="http://www.w3.org/2000/svg">
<path fill-rule="evenodd" clip-rule="evenodd" d="M72.0022 66V35.2036C74.6623 30.324 76.0022 25.2546 76.0022 20C76.0022 8.89543 67.1068 0 56.0022 0C51.4644 0 47.2956 1.48542 43.9518 4H10.0022C4.47935 4 0.00219727 8.47715 0.00219727 14V66C0.00219727 71.5229 4.47935 76 10.0022 76H62.0022C67.525 76 72.0022 71.5229 72.0022 66ZM4.00294 66V18.8284L43.1745 58L29.1745 72H10.0029C6.68924 72 4.00294 69.3137 4.00294 66ZM14.003 23.1716L29.1745 8H10.003C6.95305 8 4.43463 10.2756 4.053 13.2216L14.003 23.1716ZM16.8283 26L34.8283 8H39.9622C37.4705 11.3352 35.9999 15.485 35.9999 20C35.9999 31.4175 42.3258 41.9607 54.777 51.5825C55.4973 52.1392 56.5026 52.1392 57.2229 51.5825C61.5619 48.2295 65.1571 44.7645 67.9999 41.1896V66C67.9999 69.0499 65.7243 71.5683 62.7783 71.95L16.8283 26ZM45.9999 60.8284L34.8283 72H57.1715L45.9999 60.8284ZM55.9999 4C64.8953 4 71.9999 11.1046 71.9999 20C71.9999 29.6752 66.7265 38.8121 55.9999 47.4528C45.2733 38.8121 39.9999 29.6752 39.9999 20C39.9999 11.1046 47.1045 4 55.9999 4ZM56.0014 12C51.5823 12 47.9999 15.5817 47.9999 20C47.9999 24.4183 51.5823 28 56.0014 28C60.4205 28 64.0029 24.4183 64.0029 20C64.0029 15.5817 60.4205 12 56.0014 12ZM67.9999 20C67.9999 13.3726 62.6273 8 55.9999 8C49.3725 8 43.9999 13.3726 43.9999 20C43.9999 26.6274 49.3725 32 55.9999 32C62.6273 32 67.9999 26.6274 67.9999 20ZM22.0012 60C25.3155 60 28.0023 57.3137 28.0023 54C28.0023 50.6863 25.3155 48 22.0012 48C18.6868 48 16 50.6863 16 54C16 57.3137 18.6868 60 22.0012 60ZM12 54C12 59.5229 16.478 64 22.0019 64C27.5258 64 32.0038 59.5229 32.0038 54C32.0038 48.4772 27.5258 44 22.0019 44C16.478 44 12 48.4772 12 54Z" fill="white"/>
</svg>
