<?xml version="1.0" encoding="UTF-8"?>
<svg width="640px" height="610px" viewBox="0 0 640 610" version="1.1" xmlns="http://www.w3.org/2000/svg" xmlns:xlink="http://www.w3.org/1999/xlink">
    <!-- Generator: Sketch 52.4 (67378) - http://www.bohemiancoding.com/sketch -->
    <title>Group</title>
    <desc>Created with Sketch.</desc>
    <defs>
        <path d="M61.051,1.346 L1.04,44.949 C-0.519,46.08 0.282,48.545 2.208,48.545 L125.811,48.545 C127.738,48.545 128.539,46.08 126.98,44.949 L66.968,1.346 C66.086,0.706 65.048,0.386 64.01,0.386 C62.972,0.386 61.933,0.706 61.051,1.346" id="path-1"></path>
        <linearGradient x1="49.9999789%" y1="-1133.23198%" x2="49.9999789%" y2="136.097255%" id="linearGradient-3">
            <stop stop-color="#7EF4F0" offset="0%"></stop>
            <stop stop-color="#44CCD6" offset="100%"></stop>
        </linearGradient>
        <path d="M314.806,4.136 L241.792,228.866 L5.5,228.866 C0.215,228.866 -1.979,235.639 2.295,238.749 L193.465,377.643 L120.431,602.373 C118.809,607.391 124.571,611.588 128.845,608.479 L305.585,480.069 C309.257,477.402 311.43,473.138 311.43,468.599 L311.43,412.118 C311.43,406.719 308.854,401.664 304.485,398.478 L288.162,386.619 C296.687,383.059 302.68,374.648 302.68,364.832 C302.68,351.795 292.112,341.227 279.075,341.227 C266.678,341.227 256.532,350.79 255.566,362.939 L145.176,282.744 C142.048,280.474 143.65,275.533 147.503,275.533 L492.508,275.533 C496.361,275.533 497.964,280.474 494.855,282.744 L335.526,398.478 C331.176,401.664 328.582,406.719 328.582,412.118 L328.582,468.58 C328.582,473.119 330.754,477.383 334.425,480.05 L511.167,608.479 C515.459,611.588 521.202,607.391 519.58,602.373 L446.565,377.643 L637.716,238.749 C642.009,235.639 639.797,228.866 634.511,228.866 L398.22,228.866 L325.205,4.136 C324.385,1.627 322.195,0.373 320.006,0.373 C317.816,0.373 315.627,1.627 314.806,4.136" id="path-4"></path>
        <linearGradient x1="50.0000199%" y1="2.50500996%" x2="50.0000199%" y2="102.853768%" id="linearGradient-6">
            <stop stop-color="#7EF4F0" offset="0%"></stop>
            <stop stop-color="#44CCD6" offset="100%"></stop>
        </linearGradient>
    </defs>
    <g id="Page-1" stroke="none" stroke-width="1" fill="none" fill-rule="evenodd">
        <g id="startenderapp" transform="translate(-632.000000, -513.000000)">
            <g id="Group" transform="translate(632.000000, 513.000000)">
                <g id="Group-24" transform="translate(256.000000, 561.000000)">
                    <mask id="mask-2" fill="white">
                        <use xlink:href="#path-1"></use>
                    </mask>
                    <g id="Clip-23"></g>
                    <path d="M61.051,1.346 L1.04,44.949 C-0.519,46.08 0.282,48.545 2.208,48.545 L125.811,48.545 C127.738,48.545 128.539,46.08 126.98,44.949 L66.968,1.346 C66.086,0.706 65.048,0.386 64.01,0.386 C62.972,0.386 61.933,0.706 61.051,1.346" id="Fill-22" fill="url(#linearGradient-3)" mask="url(#mask-2)"></path>
                </g>
                <g id="Group-27">
                    <mask id="mask-5" fill="white">
                        <use xlink:href="#path-4"></use>
                    </mask>
                    <g id="Clip-26"></g>
                    <path d="M314.806,4.136 L241.792,228.866 L5.5,228.866 C0.215,228.866 -1.979,235.639 2.295,238.749 L193.465,377.643 L120.431,602.373 C118.809,607.391 124.571,611.588 128.845,608.479 L305.585,480.069 C309.257,477.402 311.43,473.138 311.43,468.599 L311.43,412.118 C311.43,406.719 308.854,401.664 304.485,398.478 L288.162,386.619 C296.687,383.059 302.68,374.648 302.68,364.832 C302.68,351.795 292.112,341.227 279.075,341.227 C266.678,341.227 256.532,350.79 255.566,362.939 L145.176,282.744 C142.048,280.474 143.65,275.533 147.503,275.533 L492.508,275.533 C496.361,275.533 497.964,280.474 494.855,282.744 L335.526,398.478 C331.176,401.664 328.582,406.719 328.582,412.118 L328.582,468.58 C328.582,473.119 330.754,477.383 334.425,480.05 L511.167,608.479 C515.459,611.588 521.202,607.391 519.58,602.373 L446.565,377.643 L637.716,238.749 C642.009,235.639 639.797,228.866 634.511,228.866 L398.22,228.866 L325.205,4.136 C324.385,1.627 322.195,0.373 320.006,0.373 C317.816,0.373 315.627,1.627 314.806,4.136" id="Fill-25" fill="url(#linearGradient-6)" mask="url(#mask-5)"></path>
                </g>
            </g>
        </g>
    </g>
</svg>