<?xml version="1.0" encoding="UTF-8"?>
<svg width="1276px" height="897px" viewBox="0 0 1276 897" version="1.1" xmlns="http://www.w3.org/2000/svg" xmlns:xlink="http://www.w3.org/1999/xlink">
    <!-- Generator: Sketch 52.4 (67378) - http://www.bohemiancoding.com/sketch -->
    <title>Group 2</title>
    <desc>Created with Sketch.</desc>
    <defs>
        <path d="M61.051,1.346 L1.04,44.949 C-0.519,46.08 0.282,48.545 2.208,48.545 L125.811,48.545 C127.738,48.545 128.539,46.08 126.98,44.949 L66.968,1.346 C66.086,0.706 65.048,0.386 64.01,0.386 C62.972,0.386 61.933,0.706 61.051,1.346" id="path-1"></path>
        <linearGradient x1="49.9999789%" y1="-1133.23198%" x2="49.9999789%" y2="136.097255%" id="linearGradient-3">
            <stop stop-color="#7EF4F0" offset="0%"></stop>
            <stop stop-color="#44CCD6" offset="100%"></stop>
        </linearGradient>
        <path d="M314.806,4.136 L241.792,228.866 L5.5,228.866 C0.215,228.866 -1.979,235.639 2.295,238.749 L193.465,377.643 L120.431,602.373 C118.809,607.391 124.571,611.588 128.845,608.479 L305.585,480.069 C309.257,477.402 311.43,473.138 311.43,468.599 L311.43,412.118 C311.43,406.719 308.854,401.664 304.485,398.478 L288.162,386.619 C296.687,383.059 302.68,374.648 302.68,364.832 C302.68,351.795 292.112,341.227 279.075,341.227 C266.678,341.227 256.532,350.79 255.566,362.939 L145.176,282.744 C142.048,280.474 143.65,275.533 147.503,275.533 L492.508,275.533 C496.361,275.533 497.964,280.474 494.855,282.744 L335.526,398.478 C331.176,401.664 328.582,406.719 328.582,412.118 L328.582,468.58 C328.582,473.119 330.754,477.383 334.425,480.05 L511.167,608.479 C515.459,611.588 521.202,607.391 519.58,602.373 L446.565,377.643 L637.716,238.749 C642.009,235.639 639.797,228.866 634.511,228.866 L398.22,228.866 L325.205,4.136 C324.385,1.627 322.195,0.373 320.006,0.373 C317.816,0.373 315.627,1.627 314.806,4.136" id="path-4"></path>
        <linearGradient x1="50.0000199%" y1="2.50500996%" x2="50.0000199%" y2="102.853768%" id="linearGradient-6">
            <stop stop-color="#7EF4F0" offset="0%"></stop>
            <stop stop-color="#44CCD6" offset="100%"></stop>
        </linearGradient>
    </defs>
    <g id="Page-1" stroke="none" stroke-width="1" fill="none" fill-rule="evenodd">
        <g id="startenderapp" transform="translate(-322.000000, -513.000000)">
            <g id="Group-2" transform="translate(322.000000, 513.000000)">
                <g id="Group-21" transform="translate(0.000000, 699.000000)" fill="#333333">
                    <path d="M89.8506,100.7129 C87.6316,97.5579 85.4156,94.3169 83.1986,90.9899 C80.9796,87.6639 78.7856,84.4659 76.6096,81.3959 C74.4346,78.3249 72.2806,75.5109 70.1496,72.9519 C68.0166,70.3939 65.9276,68.3469 63.8806,66.8119 C63.1136,66.5559 62.0256,66.3639 60.6186,66.2359 C59.2126,66.1089 57.8686,66.0449 56.5896,66.0449 C52.7506,66.0449 49.4246,66.5769 46.6106,67.6439 C43.7966,68.7099 41.4726,70.1389 39.6386,71.9289 C37.8036,73.7199 36.4406,75.7889 35.5446,78.1329 C34.6496,80.4809 34.2026,82.9309 34.2026,85.4889 C34.2026,88.7319 35.0116,91.6509 36.6326,94.2529 C38.2516,96.8549 40.4696,99.2639 43.2846,101.4809 C46.0996,103.6979 49.4036,105.7869 53.1986,107.7479 C56.9936,109.7109 61.0226,111.7149 65.2886,113.7619 C70.2336,116.0639 75.1396,118.5589 80.0006,121.2449 C84.8606,123.9319 89.2316,126.9819 93.1126,130.3919 C96.9926,133.8039 100.1496,137.7059 102.5796,142.0979 C105.0096,146.4909 106.2256,151.6279 106.2256,157.5119 C106.2256,164.0809 104.7546,169.8159 101.8116,174.7199 C98.8696,179.6249 94.8176,183.7379 89.6586,187.0639 C84.4966,190.3889 78.4206,192.8839 71.4286,194.5479 C64.4346,196.2109 56.9286,197.0409 48.9136,197.0409 C44.5636,197.0409 40.0866,196.7649 35.4816,196.2109 C30.8756,195.6549 26.4186,194.9089 22.1126,193.9729 C17.8046,193.0329 13.7976,191.9469 10.0876,190.7089 C6.3776,189.4749 3.2856,188.2139 0.8126,186.9359 L9.0006,152.1399 L11.5586,152.1399 C12.9216,155.1259 14.6066,158.5159 16.6116,162.3099 C18.6146,166.1059 20.7896,169.8579 23.1356,173.5669 C25.4806,177.2769 27.9966,180.7319 30.6836,183.9299 C33.3696,187.1289 36.1216,189.5789 38.9356,191.2849 C40.2986,191.5409 42.0476,191.7759 44.1806,191.9879 C46.3106,192.2029 48.1876,192.3079 49.8086,192.3079 C54.5846,192.3079 58.5506,191.7339 61.7056,190.5819 C64.8606,189.4299 67.3766,187.9169 69.2536,186.0409 C71.1296,184.1649 72.4526,182.0109 73.2196,179.5809 C73.9876,177.1499 74.3716,174.6119 74.3716,171.9689 C74.3716,168.5589 73.5396,165.5519 71.8766,162.9489 C70.2136,160.3499 67.9306,157.9599 65.0326,155.7849 C62.1326,153.6109 58.7646,151.5649 54.9256,149.6449 C51.0886,147.7259 46.9946,145.7009 42.6446,143.5679 C37.8676,141.2659 33.0926,138.8349 28.3166,136.2769 C23.5396,133.7179 19.1906,130.7339 15.2676,127.3219 C11.3446,123.9119 8.1676,119.9659 5.7376,115.4879 C3.3066,111.0109 2.0926,105.7449 2.0926,99.6889 C2.0926,93.1229 3.4346,87.4079 6.1216,82.5469 C8.8076,77.6849 12.5816,73.6779 17.4426,70.5219 C22.3046,67.3679 28.1036,65.0209 34.8416,63.4849 C41.5776,61.9509 48.9976,61.1839 57.1006,61.1839 C60.3406,61.1839 63.7736,61.3749 67.3996,61.7579 C71.0226,62.1429 74.6046,62.6759 78.1456,63.3579 C81.6836,64.0409 85.1376,64.8089 88.5076,65.6599 C91.8756,66.5139 94.9236,67.4509 97.6546,68.4749 L91.7686,100.7129 L89.8506,100.7129 Z" id="Fill-1"></path>
                    <path d="M170.4443,197.041 C165.0713,197.041 160.0823,196.274 155.4783,194.739 C150.8713,193.203 146.8413,190.924 143.3873,187.895 C139.9333,184.869 137.2253,181.096 135.2633,176.574 C133.3013,172.055 132.3213,166.768 132.3213,160.711 L132.3213,69.37 L115.9473,69.37 L115.9473,67.835 L134.1133,58.752 L169.1653,33.167 L171.4673,33.167 L171.4673,64.509 L210.3583,64.509 L210.3583,69.37 L171.4673,69.37 L171.4673,160.711 C171.4673,167.535 172.9823,172.673 176.0093,176.127 C179.0353,179.581 183.3643,181.308 188.9943,181.308 C193.8563,181.308 198.3333,180.731 202.4273,179.581 C206.5213,178.429 209.9753,176.874 212.7893,174.911 L214.0693,176.83 C211.9343,179.474 209.3993,182.011 206.4573,184.441 C203.5133,186.872 200.1883,189.025 196.4783,190.901 C192.7683,192.779 188.7373,194.27 184.3873,195.379 C180.0403,196.485 175.3903,197.041 170.4443,197.041" id="Fill-3"></path>
                    <path d="M278.7993,178.4932 C286.0483,178.4932 292.1893,176.5322 297.2223,172.6072 L297.2223,125.6582 C291.5923,126.5982 286.5173,128.0252 281.9993,129.9432 C277.4773,131.8632 273.6393,134.2302 270.4853,137.0442 C267.3283,139.8582 264.8993,143.1012 263.1933,146.7662 C261.4863,150.4342 260.6343,154.4422 260.6343,158.7922 C260.6343,164.6772 262.0613,169.4312 264.9193,173.0562 C267.7773,176.6812 272.4033,178.4932 278.7993,178.4932 Z M298.3743,177.5972 C293.0833,183.3972 286.9003,188.0872 279.8243,191.6682 C272.7433,195.2512 265.1953,197.0412 257.1803,197.0412 C252.2323,197.0412 247.6693,196.4012 243.4913,195.1222 C239.3113,193.8432 235.7083,191.9882 232.6823,189.5582 C229.6543,187.1292 227.2863,184.1652 225.5813,180.6682 C223.8753,177.1722 223.0233,173.1632 223.0233,168.6422 C223.0233,161.4782 225.0483,155.1262 229.1013,149.5812 C233.1493,144.0382 238.5673,139.2632 245.3463,135.2532 C252.1283,131.2452 259.9953,128.0482 268.9493,125.6582 C277.9053,123.2722 287.3273,121.6502 297.2223,120.7972 L297.2223,104.6792 C297.2223,100.6712 296.6463,97.0032 295.4933,93.6772 C294.3433,90.3502 292.5293,87.5162 290.0573,85.1692 C287.5833,82.8242 284.4283,81.0122 280.5913,79.7312 C276.7533,78.4532 272.1473,77.8132 266.7743,77.8132 C260.8053,77.8132 255.1533,78.5392 249.8233,79.9882 C244.4933,81.4392 239.0143,83.7422 233.3853,86.8962 L231.5933,84.4662 C238.5023,77.5572 246.9453,71.9922 256.9243,67.7702 C266.9033,63.5502 278.0323,61.4382 290.3133,61.4382 C299.5243,61.4382 307.1143,62.5252 313.0843,64.7012 C319.0533,66.8762 323.7663,69.9452 327.2203,73.9122 C330.6743,77.8782 333.0833,82.6112 334.4483,88.1122 C335.8123,93.6132 336.4963,99.6462 336.4963,106.2142 L336.4963,171.0732 L349.8003,185.2732 L349.8003,186.8082 L302.8513,197.0412 L298.3743,177.5972 Z" id="Fill-5"></path>
                    <path d="M417.9873,62.5908 L417.9873,85.6168 C419.7773,82.2908 422.2493,79.1148 425.4053,76.0858 C428.5603,73.0608 432.1013,70.3938 436.0243,68.0918 C439.9453,65.7878 444.0393,63.9778 448.3053,62.6538 C452.5693,61.3328 456.7043,60.6708 460.7143,60.6708 C462.6753,60.6708 464.5713,60.7988 466.4063,61.0548 C468.2393,61.3108 470.0943,61.8218 471.9723,62.5908 L465.1913,103.5278 L463.1453,103.5278 C461.5233,101.3968 459.7973,99.1778 457.9633,96.8738 C456.1283,94.5718 454.0823,92.4608 451.8233,90.5418 C449.5623,88.6228 447.0453,87.0688 444.2753,85.8718 C441.5043,84.6798 438.4103,84.0818 435.0013,84.0818 C431.1623,84.0818 427.7923,84.9568 424.8933,86.7048 C421.9943,88.4528 419.6903,90.3948 417.9873,92.5258 L417.9873,175.9338 L434.2333,192.0538 L434.2333,193.9728 L362.9773,193.9728 L362.9773,192.0538 L378.7133,176.0618 L378.7133,86.6398 L364.3833,74.6148 L364.3833,72.5688 L416.5793,61.1838 L417.9873,62.5908 Z" id="Fill-7"></path>
                    <path d="M533.3774,197.041 C528.0044,197.041 523.0154,196.274 518.4114,194.739 C513.8044,193.203 509.7744,190.924 506.3204,187.895 C502.8664,184.869 500.1584,181.096 498.1964,176.574 C496.2344,172.055 495.2544,166.768 495.2544,160.711 L495.2544,69.37 L478.8804,69.37 L478.8804,67.835 L497.0464,58.752 L532.0984,33.167 L534.4004,33.167 L534.4004,64.509 L573.2914,64.509 L573.2914,69.37 L534.4004,69.37 L534.4004,160.711 C534.4004,167.535 535.9154,172.673 538.9424,176.127 C541.9684,179.581 546.2984,181.308 551.9274,181.308 C556.7894,181.308 561.2664,180.731 565.3604,179.581 C569.4544,178.429 572.9084,176.874 575.7224,174.911 L577.0024,176.83 C574.8684,179.474 572.3324,182.011 569.3904,184.441 C566.4464,186.872 563.1224,189.025 559.4114,190.901 C555.7014,192.779 551.6704,194.27 547.3214,195.379 C542.9734,196.485 538.3234,197.041 533.3774,197.041" id="Fill-9"></path>
                    <path d="M649.793,66.8115 C646.037,66.8115 642.712,67.9845 639.814,70.3305 C636.913,72.6755 634.482,76.0015 632.522,80.3075 C630.558,84.6165 629.023,89.8605 627.916,96.0425 C626.807,102.2275 626.168,109.1555 625.997,116.8315 L670.645,114.1445 C670.645,105.7875 670.216,98.6235 669.365,92.6535 C668.511,86.6845 667.231,81.7785 665.528,77.9415 C663.82,74.1035 661.668,71.2895 659.066,69.4985 C656.465,67.7075 653.374,66.8115 649.793,66.8115 Z M706.336,165.4445 C703.268,170.3055 699.831,174.6775 696.039,178.5565 C692.242,182.4385 687.956,185.7645 683.182,188.5345 C678.403,191.3075 673.117,193.4185 667.317,194.8685 C661.519,196.3175 655.12,197.0405 648.128,197.0405 C638.662,197.0405 630.068,195.4215 622.353,192.1805 C614.632,188.9395 608.044,184.4415 602.587,178.6845 C597.128,172.9275 592.928,166.0415 589.986,158.0245 C587.043,150.0085 585.573,141.1815 585.573,131.5435 C585.573,121.1395 587.192,111.6085 590.433,102.9515 C593.674,94.2965 598.215,86.8755 604.057,80.6925 C609.899,74.5095 616.894,69.7115 625.038,66.2995 C633.182,62.8895 642.116,61.1835 651.839,61.1835 C660.965,61.1835 669.087,62.7405 676.21,65.8515 C683.329,68.9665 689.364,73.2075 694.311,78.5815 C699.256,83.9545 703.011,90.2455 705.569,97.4505 C708.128,104.6585 709.406,112.3545 709.406,120.5415 L625.87,120.5415 C625.784,121.1395 625.741,121.6925 625.741,122.2045 L625.741,123.9965 C626.253,140.6255 630.22,153.4625 637.639,162.5015 C645.06,171.5425 655.336,176.0615 668.47,176.0615 C672.307,176.0615 675.995,175.7225 679.535,175.0395 C683.073,174.3575 686.38,173.4405 689.45,172.2885 C692.52,171.1365 695.314,169.8365 697.829,168.3865 C700.344,166.9375 702.541,165.4025 704.417,163.7815 L706.336,165.4445 Z" id="Fill-11"></path>
                    <path d="M770.5576,62.5908 L770.5576,81.7778 C773.4536,78.8808 776.6116,76.1718 780.0246,73.6558 C783.4336,71.1418 787.1006,68.9448 791.0266,67.0678 C794.9486,65.1928 799.0626,63.7408 803.3706,62.7178 C807.6756,61.6948 812.1756,61.1838 816.8686,61.1838 C822.5786,61.1838 827.8886,62.1008 832.7936,63.9328 C837.6976,65.7678 841.9406,68.3468 845.5236,71.6728 C849.1056,74.9988 851.8976,78.9648 853.9016,83.5698 C855.9046,88.1758 856.9096,93.2508 856.9096,98.7938 L856.9096,175.9338 L872.5156,192.0538 L872.5156,193.9728 L802.6656,193.9728 L802.6656,192.0538 L817.6346,175.9338 L817.6346,100.5848 C817.6346,93.6768 815.7566,88.1558 812.0056,84.0188 C808.2516,79.8828 802.7496,77.8138 795.5036,77.8138 C790.7256,77.8138 786.1846,78.6888 781.8776,80.4358 C777.5716,82.1848 773.7966,84.7218 770.5576,88.0478 L770.5576,175.9338 L785.5246,192.0538 L785.5246,193.9728 L715.5476,193.9728 L715.5476,192.0538 L731.2836,176.0618 L731.2836,86.6398 L716.9536,74.6148 L716.9536,72.5688 L769.1496,61.1838 L770.5576,62.5908 Z" id="Fill-13"></path>
                    <path d="M953.2393,179.1328 C961.1703,179.1328 968.2903,176.4898 974.6013,171.1998 L974.6013,88.5598 C973.4063,81.2258 971.0413,75.7668 967.5033,72.1858 C963.9623,68.6028 959.6353,66.8118 954.5183,66.8118 C949.3993,66.8118 944.8143,68.1128 940.7653,70.7128 C936.7133,73.3158 933.2813,77.1108 930.4673,82.0988 C927.6523,87.0878 925.4973,93.1868 924.0073,100.3928 C922.5123,107.6008 921.7683,115.8088 921.7683,125.0188 C921.7683,142.7588 924.4973,156.2138 929.9563,165.3798 C935.4133,174.5488 943.1743,179.1328 953.2393,179.1328 Z M1013.8763,2.2078 L1013.8763,171.0728 L1027.3093,185.2738 L1027.3093,186.8088 L980.2303,197.0408 L975.4973,176.8298 C973.0233,179.3038 970.3383,181.7358 967.4393,184.1208 C964.5383,186.5108 961.2983,188.6628 957.7163,190.5818 C954.1333,192.4998 950.1883,194.0568 945.8823,195.2508 C941.5753,196.4448 936.8193,197.0408 931.6183,197.0408 C923.7713,197.0408 916.6933,195.5078 910.3823,192.4368 C904.0693,189.3658 898.6973,185.0618 894.2623,179.5158 C889.8293,173.9728 886.4163,167.3628 884.0293,159.6878 C881.6413,152.0128 880.4463,143.6118 880.4463,134.4858 C880.4463,123.8258 882.0653,113.9968 885.3083,104.9978 C888.5483,96.0008 893.1973,88.2618 899.2523,81.7788 C905.3073,75.2988 912.6403,70.2458 921.2563,66.6188 C929.8703,62.9948 939.5503,61.1838 950.2963,61.1838 C954.9013,61.1838 959.2523,61.7578 963.3453,62.9098 C967.4393,64.0618 971.1903,65.7458 974.6013,67.9628 L974.6013,26.2588 L962.5763,14.2328 L962.5763,12.1858 L1012.2143,0.8008 L1013.8763,2.2078 Z" id="Fill-15"></path>
                    <path d="M1101.252,66.8115 C1097.496,66.8115 1094.172,67.9845 1091.273,70.3305 C1088.372,72.6755 1085.941,76.0015 1083.981,80.3075 C1082.018,84.6165 1080.482,89.8605 1079.375,96.0425 C1078.267,102.2275 1077.627,109.1555 1077.456,116.8315 L1122.104,114.1445 C1122.104,105.7875 1121.676,98.6235 1120.825,92.6535 C1119.97,86.6845 1118.69,81.7785 1116.987,77.9415 C1115.279,74.1035 1113.127,71.2895 1110.526,69.4985 C1107.925,67.7075 1104.833,66.8115 1101.252,66.8115 Z M1157.795,165.4445 C1154.727,170.3055 1151.291,174.6775 1147.498,178.5565 C1143.702,182.4385 1139.415,185.7645 1134.642,188.5345 C1129.863,191.3075 1124.576,193.4185 1118.776,194.8685 C1112.978,196.3175 1106.58,197.0405 1099.588,197.0405 C1090.121,197.0405 1081.527,195.4215 1073.812,192.1805 C1066.092,188.9395 1059.503,184.4415 1054.046,178.6845 C1048.587,172.9275 1044.387,166.0415 1041.445,158.0245 C1038.502,150.0085 1037.032,141.1815 1037.032,131.5435 C1037.032,121.1395 1038.651,111.6085 1041.893,102.9515 C1045.133,94.2965 1049.674,86.8755 1055.517,80.6925 C1061.358,74.5095 1068.353,69.7115 1076.497,66.2995 C1084.642,62.8895 1093.575,61.1835 1103.298,61.1835 C1112.424,61.1835 1120.546,62.7405 1127.669,65.8515 C1134.789,68.9665 1140.824,73.2075 1145.771,78.5815 C1150.715,83.9545 1154.47,90.2455 1157.028,97.4505 C1159.587,104.6585 1160.866,112.3545 1160.866,120.5415 L1077.329,120.5415 C1077.243,121.1395 1077.2,121.6925 1077.2,122.2045 L1077.2,123.9965 C1077.713,140.6255 1081.68,153.4625 1089.098,162.5015 C1096.519,171.5425 1106.795,176.0615 1119.929,176.0615 C1123.767,176.0615 1127.454,175.7225 1130.994,175.0395 C1134.532,174.3575 1137.839,173.4405 1140.91,172.2885 C1143.979,171.1365 1146.773,169.8365 1149.288,168.3865 C1151.803,166.9375 1154.001,165.4025 1155.876,163.7815 L1157.795,165.4445 Z" id="Fill-17"></path>
                    <path d="M1222.0156,62.5908 L1222.0156,85.6168 C1223.8046,82.2908 1226.2776,79.1148 1229.4336,76.0858 C1232.5886,73.0608 1236.1286,70.3938 1240.0526,68.0918 C1243.9736,65.7878 1248.0676,63.9778 1252.3336,62.6538 C1256.5976,61.3328 1260.7326,60.6708 1264.7426,60.6708 C1266.7036,60.6708 1268.5996,60.7988 1270.4346,61.0548 C1272.2666,61.3108 1274.1216,61.8218 1275.9996,62.5908 L1269.2186,103.5278 L1267.1726,103.5278 C1265.5516,101.3968 1263.8256,99.1778 1261.9916,96.8738 C1260.1566,94.5718 1258.1106,92.4608 1255.8516,90.5418 C1253.5896,88.6228 1251.0736,87.0688 1248.3036,85.8718 C1245.5326,84.6798 1242.4386,84.0818 1239.0296,84.0818 C1235.1906,84.0818 1231.8206,84.9568 1228.9216,86.7048 C1226.0226,88.4528 1223.7186,90.3948 1222.0156,92.5258 L1222.0156,175.9338 L1238.2606,192.0538 L1238.2606,193.9728 L1167.0056,193.9728 L1167.0056,192.0538 L1182.7406,176.0618 L1182.7406,86.6398 L1168.4116,74.6148 L1168.4116,72.5688 L1220.6066,61.1838 L1222.0156,62.5908 Z" id="Fill-19"></path>
                </g>
                <g id="Group" transform="translate(310.000000, 0.000000)">
                    <g id="Group-24" transform="translate(256.000000, 561.000000)">
                        <mask id="mask-2" fill="white">
                            <use xlink:href="#path-1"></use>
                        </mask>
                        <g id="Clip-23"></g>
                        <path d="M61.051,1.346 L1.04,44.949 C-0.519,46.08 0.282,48.545 2.208,48.545 L125.811,48.545 C127.738,48.545 128.539,46.08 126.98,44.949 L66.968,1.346 C66.086,0.706 65.048,0.386 64.01,0.386 C62.972,0.386 61.933,0.706 61.051,1.346" id="Fill-22" fill="url(#linearGradient-3)" mask="url(#mask-2)"></path>
                    </g>
                    <g id="Group-27">
                        <mask id="mask-5" fill="white">
                            <use xlink:href="#path-4"></use>
                        </mask>
                        <g id="Clip-26"></g>
                        <path d="M314.806,4.136 L241.792,228.866 L5.5,228.866 C0.215,228.866 -1.979,235.639 2.295,238.749 L193.465,377.643 L120.431,602.373 C118.809,607.391 124.571,611.588 128.845,608.479 L305.585,480.069 C309.257,477.402 311.43,473.138 311.43,468.599 L311.43,412.118 C311.43,406.719 308.854,401.664 304.485,398.478 L288.162,386.619 C296.687,383.059 302.68,374.648 302.68,364.832 C302.68,351.795 292.112,341.227 279.075,341.227 C266.678,341.227 256.532,350.79 255.566,362.939 L145.176,282.744 C142.048,280.474 143.65,275.533 147.503,275.533 L492.508,275.533 C496.361,275.533 497.964,280.474 494.855,282.744 L335.526,398.478 C331.176,401.664 328.582,406.719 328.582,412.118 L328.582,468.58 C328.582,473.119 330.754,477.383 334.425,480.05 L511.167,608.479 C515.459,611.588 521.202,607.391 519.58,602.373 L446.565,377.643 L637.716,238.749 C642.009,235.639 639.797,228.866 634.511,228.866 L398.22,228.866 L325.205,4.136 C324.385,1.627 322.195,0.373 320.006,0.373 C317.816,0.373 315.627,1.627 314.806,4.136" id="Fill-25" fill="url(#linearGradient-6)" mask="url(#mask-5)"></path>
                    </g>
                </g>
            </g>
        </g>
    </g>
</svg>